<?xml version="1.0" encoding="UTF-8"?>
<!DOCTYPE svg PUBLIC "-//W3C//DTD SVG 1.1//EN" "http://www.w3.org/Graphics/SVG/1.1/DTD/svg11.dtd">
<svg version="1.1" xmlns="http://www.w3.org/2000/svg" xmlns:xlink="http://www.w3.org/1999/xlink" x="0" y="0" width="105" height="60" viewBox="0, 0, 105, 60">
  <g id="Layer_1">
    <path d="M86.108,27.161 C85.702,27.429 85.16,27.429 84.756,27.161 C84.091,26.719 84.026,25.797 84.562,25.264 C85.038,24.771 85.825,24.771 86.301,25.263 C86.835,25.797 86.771,26.719 86.108,27.161 M88.043,24.473 C88.816,27.757 85.865,30.71 82.58,29.939 C80.908,29.546 79.58,28.219 79.189,26.548 C78.418,23.266 81.368,20.315 84.651,21.085 C86.323,21.475 87.65,22.801 88.043,24.473 M65.932,42.135 C66.308,42.675 66.618,43.195 66.795,43.716 C66.917,44.086 67.077,44.574 67.441,44.77 C67.463,44.781 67.479,44.791 67.503,44.798 C68.173,45.041 69.895,45 69.895,45 L73.064,45 C73.334,45.004 75.715,44.998 75.655,44.731 C75.369,43.458 73.896,43.23 72.775,42.565 C71.742,41.949 70.763,41.25 70.318,40.049 C70.086,39.429 70.225,37.999 70.624,37.478 C70.915,37.101 71.343,36.852 71.804,36.75 C72.315,36.641 72.844,36.735 73.355,36.787 C73.985,36.852 74.608,36.965 75.236,37.043 C76.449,37.201 77.672,37.264 78.895,37.232 C80.912,37.176 82.932,36.854 84.846,36.202 C86.18,35.754 87.496,35.148 88.63,34.305 C89.92,33.347 89.581,33.436 88.274,33.57 C86.707,33.731 85.126,33.754 83.555,33.661 C82.09,33.576 80.644,33.404 79.318,32.722 C78.274,32.183 77.377,31.644 76.549,30.809 C76.426,30.683 76.347,30.314 76.575,30.079 C76.794,29.851 77.262,29.983 77.403,30.105 C78.848,31.312 81.003,32.306 83.232,32.414 C84.438,32.474 85.612,32.497 86.817,32.444 C87.42,32.416 88.332,32.42 88.936,32.414 C89.248,32.41 90.099,32.5 90.258,32.17 C90.307,32.073 90.302,31.962 90.298,31.854 C90.12,27.028 89.764,21.585 84.714,19.278 C80.947,17.555 75.297,14.886 72.912,13.779 C72.358,13.517 71.711,13.932 71.711,14.548 C71.711,16.16 71.793,18.476 71.794,20.584 C70.651,19.42 68.726,18.685 67.258,18.011 C65.592,17.247 63.873,16.599 62.123,16.054 C58.6,14.963 54.954,14.291 51.287,13.927 C47.129,13.512 42.9,13.711 38.804,14.557 C32.059,15.955 25.431,19.199 20.399,23.941 C17.309,26.852 14.886,30.989 14.722,35.187 C14.489,41.131 16.153,44.321 19.213,47.611 C24.093,52.853 34.596,53.586 38.849,47.37 C40.763,44.572 41.179,40.777 39.79,37.685 C38.402,34.593 35.209,32.359 31.822,32.245 C29.195,32.158 26.397,33.495 25.391,35.924 C24.621,37.778 25.059,40.07 26.458,41.51 C27.003,42.072 27.741,42.532 28.548,42.352 C29.022,42.246 29.419,41.889 29.491,41.407 C29.597,40.697 28.974,40.235 28.592,39.689 C27.901,38.704 28.041,37.225 28.905,36.388 C29.636,35.681 30.717,35.473 31.733,35.475 C32.678,35.477 33.646,35.646 34.462,36.124 C35.61,36.798 36.372,38.034 36.635,39.34 C37.423,43.243 34.25,46.414 29.947,46.663 C27.745,46.794 25.505,46.215 23.787,44.833 C19.437,41.333 18.371,34.178 23.345,30.359 C28.065,26.734 34.026,27.669 37.538,29.552 C40.351,31.059 42.448,33.525 44.034,36.252 C44.832,37.622 45.511,39.055 46.141,40.51 C46.748,41.909 47.314,43.319 48.527,44.345 C49.33,45.024 50.322,45 51.373,45 L57.379,45 C58.194,45 57.996,44.456 57.643,44.096 C56.847,43.282 55.702,43.098 54.644,42.807 C52.224,42.141 52.47,38.937 53.139,38.937 C55.303,38.937 55.372,39.001 57.268,38.977 C60.004,38.939 60.831,38.78 62.972,39.572 C64.115,39.995 65.215,41.114 65.932,42.135" fill="#30BA78"/>
  </g>
</svg>
